<svg width="75" height="75" viewBox="0 0 75 75" fill="none" xmlns="http://www.w3.org/2000/svg">
<rect width="55" height="75" rx="10" fill="#D9D9D9"/>
<path d="M57 5V5C61.9706 5 66 9.02944 66 14V60C66 64.9706 61.9706 69 57 69V69V5Z" fill="#D9D9D9"/>
<path d="M68 11V11C71.866 11 75 14.134 75 18V57C75 60.866 71.866 64 68 64V64V11Z" fill="#D9D9D9"/>
<mask id="path-4-inside-1_0_1" fill="white">
<rect x="19.5" y="21" width="18" height="33" rx="1"/>
</mask>
<rect x="19.5" y="21" width="18" height="33" rx="1" stroke="black" stroke-width="6" mask="url(#path-4-inside-1_0_1)"/>
<line x1="20.5" y1="31.5" x2="36.5" y2="31.5" stroke="black" stroke-width="3"/>
<line x1="19.5" y1="41.5" x2="35.5" y2="41.5" stroke="black" stroke-width="3"/>
<path d="M14 53L14 22" stroke="black" stroke-width="3" stroke-miterlimit="4.62023" stroke-linecap="round"/>
<path d="M42.5 53V22" stroke="black" stroke-width="3" stroke-linecap="round"/>
<line x1="15.5" y1="24" x2="20.5" y2="24" stroke="black" stroke-width="4"/>
<line x1="15.5" y1="30" x2="20.5" y2="30" stroke="black" stroke-width="4"/>
<line x1="15.5" y1="36" x2="20.5" y2="36" stroke="black" stroke-width="4"/>
<line x1="15.5" y1="43" x2="20.5" y2="43" stroke="black" stroke-width="4"/>
<line x1="14.5" y1="49" x2="19.5" y2="49" stroke="black" stroke-width="4"/>
<line x1="37.5" y1="24" x2="42.5" y2="24" stroke="black" stroke-width="4"/>
<line x1="37.5" y1="30" x2="42.5" y2="30" stroke="black" stroke-width="4"/>
<line x1="37.5" y1="36" x2="42.5" y2="36" stroke="black" stroke-width="4"/>
<line x1="37.5" y1="43" x2="42.5" y2="43" stroke="black" stroke-width="4"/>
<line x1="36.5" y1="49" x2="41.5" y2="49" stroke="black" stroke-width="4"/>
</svg>
